HIERARCHY
ROOT hip
{
	OFFSET 0.000000 0.000000 0.000000 
	CHANNELS 6 Xposition Yposition Zposition Xrotation Zrotation Yrotation
	JOINT abdomen
	{
		OFFSET 0.000000 3.402643 0.000000 
		CHANNELS 3 Xrotation Zrotation Yrotation
		JOINT chest
		{
			OFFSET 0.000000 8.438565 -0.680529 
			CHANNELS 3 Xrotation Zrotation Yrotation
			JOINT neck
			{
				OFFSET 0.000000 10.207942 -0.272212 
				CHANNELS 3 Xrotation Zrotation Yrotation
				JOINT head
				{
					OFFSET 0.000000 3.130431 0.000000 
					CHANNELS 3 Xrotation Zrotation Yrotation
					End Site
					{
						OFFSET 0.000000 3.130435 0.000000 
					}
				}
			}
			JOINT lCollar
			{
				OFFSET 3.470700 6.669187 -0.816635 
				CHANNELS 3 Zrotation Yrotation Xrotation
				JOINT lShldr
				{
					OFFSET 3.198488 0.000000 0.000000 
					CHANNELS 3 Zrotation Yrotation Xrotation
					JOINT lForeArm
					{
						OFFSET 10.139888 0.000000 0.000000 
						CHANNELS 3 Yrotation Zrotation Xrotation
						JOINT lHand
						{
							OFFSET 8.370511 0.000000 0.000000 
							CHANNELS 3 Zrotation Yrotation Xrotation
							End Site
							{
								OFFSET 4.083176 0.000000 0.000000 
							}
						}
					}
				}
			}
			JOINT rCollar
			{
				OFFSET -3.470700 6.669187 -0.816635 
				CHANNELS 3 Zrotation Yrotation Xrotation
				JOINT rShldr
				{
					OFFSET -3.198488 0.000000 0.000000 
					CHANNELS 3 Zrotation Yrotation Xrotation
					JOINT rForeArm
					{
						OFFSET -10.139888 0.000000 0.000000 
						CHANNELS 3 Yrotation Zrotation Xrotation
						JOINT rHand
						{
							OFFSET -8.370511 0.000000 0.000000 
							CHANNELS 3 Zrotation Yrotation Xrotation
							End Site
							{
								OFFSET -4.083176 0.000000 0.000000 
							}
						}
					}
				}
			}
		}
	}
	JOINT lThigh
	{
		OFFSET 5.308129 -1.633274 1.361059 
		CHANNELS 3 Xrotation Zrotation Yrotation
		JOINT lShin
		{
			OFFSET -2.041588 -20.007561 0.000000 
			CHANNELS 3 Xrotation Zrotation Yrotation
			JOINT lFoot
			{
				OFFSET 0.000000 -19.190928 -1.224953 
				CHANNELS 3 Xrotation Yrotation Zrotation
				End Site
				{
					OFFSET 0.000000 -2.449906 4.627600 
				}
			}
		}
	}
	JOINT rThigh
	{
		OFFSET -5.308129 -1.633274 1.361059 
		CHANNELS 3 Xrotation Zrotation Yrotation
		JOINT rShin
		{
			OFFSET 2.041588 -20.007561 0.000000 
			CHANNELS 3 Xrotation Zrotation Yrotation
			JOINT rFoot
			{
				OFFSET 0.000000 -19.190928 -1.224953 
				CHANNELS 3 Xrotation Yrotation Zrotation
				End Site
				{
					OFFSET 0.000000 -2.449906 4.627600 
				}
			}
		}
	}
}
MOTION
Frames: 11
Frame Time: 0.016667
0.589316 19.959002 -7.406040 -20.209852 -25.902452 2.712172 54.868423 28.994026 9.663817 2.090838 0.986269 1.738525 -6.362540 4.384179 -0.268000 6.155936 -5.090192 20.700050 -8.907204 -23.620272 3.170903 -51.144947 -17.530901 1.436625 -70.797981 -5.000000 2.264346 -30.673321 12.016290 24.387251 8.869628 21.091806 2.769420 60.200760 14.191200 10.997763 39.318474 5.000000 12.113842 3.272129 -20.202473 27.441792 -91.611435 23.271729 -2.183706 144.988861 9.974948 -3.883938 -51.753918 19.066681 21.266640 -13.124767 -7.665252 -39.996792 144.984009 -6.405606 2.532685 -71.331985 -1.623699 -13.350659 
0.585167 19.956903 -7.411365 -20.218817 -25.892290 2.734004 54.862724 28.997005 9.635438 2.071367 0.976503 1.738522 -6.303338 4.414606 -0.262753 6.236263 -5.135867 20.701788 -8.895914 -23.611162 3.162200 -51.157925 -17.534781 1.460851 -70.807648 -5.000000 2.253435 -30.616224 12.074022 24.406950 8.889286 21.091925 2.778253 60.219967 14.190920 11.017462 39.236465 5.000000 12.092770 3.247452 -19.902573 27.518230 -91.599480 23.251604 -2.140629 144.984253 9.945820 -3.900972 -51.981342 18.986935 21.387016 -13.113129 -7.667645 -39.995945 144.981903 -6.356576 2.539644 -71.406685 -1.581390 -13.280945 
0.582164 19.955215 -7.415654 -20.241528 -25.862825 2.742791 54.865589 28.978706 9.594926 2.052112 0.986266 1.738522 -6.234978 4.414606 -0.262753 6.295049 -5.153143 20.731821 -8.901666 -23.602489 3.155382 -51.150124 -17.527426 1.463581 -70.827522 -5.000000 2.243488 -30.573105 12.099300 24.426060 8.908873 21.101809 2.787130 60.219967 14.190920 11.017462 39.146103 5.000000 12.101816 3.211368 -19.656677 27.566248 -91.562569 23.249361 -2.068600 144.987457 9.961743 -3.864665 -52.157963 18.927486 21.461287 -13.104872 -7.693111 -39.996040 144.971710 -6.317474 2.510549 -71.455803 -1.537292 -13.163746 
0.580311 19.953949 -7.418893 -20.283552 -25.824011 2.734006 54.872047 28.933962 9.538905 2.052503 1.005794 1.728758 -6.165746 4.387099 -0.248745 6.333190 -5.142352 20.780428 -8.932225 -23.581581 3.162821 -51.127056 -17.529657 1.444219 -70.837433 -5.000000 2.239820 -30.535051 12.085682 24.420767 8.908656 21.131104 2.787262 60.220173 14.181135 10.997941 39.073673 5.000000 12.114849 3.152104 -19.452955 27.609779 -91.513512 23.271784 -1.997311 144.988495 9.974879 -3.875793 -52.323795 18.894995 21.510349 -13.093936 -7.717771 -39.926823 144.982025 -6.288318 2.467062 -71.465225 -1.508478 -13.050669 
0.578458 19.952681 -7.422143 -20.320545 -25.784992 2.729757 54.871784 28.883265 9.491623 2.043195 1.015555 1.738522 -6.087455 4.348476 -0.242904 6.370472 -5.131230 20.838751 -8.977606 -23.558607 3.186387 -51.106274 -17.518408 1.422732 -70.847343 -5.000000 2.236154 -30.509571 12.068610 24.416624 8.909049 21.150595 2.797103 60.230350 14.171187 10.968742 39.001240 5.000000 12.129840 3.096492 -19.248596 27.640291 -91.462395 23.309828 -1.918995 144.988708 9.971838 -3.863664 -52.460815 18.868887 21.581066 -13.065587 -7.770363 -39.790268 144.981400 -6.249087 2.445797 -71.505745 -1.463090 -12.916197 
0.576457 19.950092 -7.424700 -20.334845 -25.775440 2.720967 54.875473 28.870220 9.491970 2.042961 1.025324 1.728760 -6.038668 4.358131 -0.244364 6.421391 -5.176864 20.840502 -8.988893 -23.567711 3.191184 -51.095882 -17.512774 1.411992 -70.838783 -5.000000 2.247892 -30.524057 12.057769 24.389902 8.918071 21.150711 2.786890 60.210625 14.161726 10.968578 39.012051 5.000000 12.141853 3.109374 -19.170422 27.566381 -91.440575 23.309397 -1.905209 144.975723 9.955966 -3.895465 -52.562656 18.872185 21.634924 -13.064304 -7.755580 -39.663975 144.989502 -6.191402 2.436499 -71.532021 -1.445839 -12.835649 
0.574456 19.947504 -7.427268 -20.339897 -25.775642 2.707927 54.869392 28.857170 9.487603 2.042786 1.025326 1.738528 -5.979377 4.369247 -0.236196 6.468816 -5.231624 20.842270 -9.000183 -23.576811 3.195984 -51.085491 -17.507143 1.401254 -70.820450 -5.000000 2.256781 -30.534712 12.030425 24.360201 8.928241 21.140987 2.796139 60.200661 14.161886 10.978257 39.026531 5.000000 12.143882 3.115285 -19.093302 27.510824 -91.427773 23.308512 -1.875068 144.986450 9.965939 -3.907952 -52.613693 18.863251 21.667974 -13.064993 -7.768070 -39.537716 144.989014 -6.152324 2.414638 -71.551979 -1.388839 -12.709565 
0.572480 19.945234 -7.429534 -20.343924 -25.756332 2.699137 54.855812 28.840860 9.477943 2.052377 1.025328 1.728764 -5.910978 4.359591 -0.234736 6.509061 -5.276914 20.853773 -9.006598 -23.577797 3.190545 -51.067307 -17.494144 1.393263 -70.821938 -5.000000 2.259672 -30.558170 12.026015 24.351122 8.947754 21.160639 2.805061 60.181103 14.152412 10.968329 39.056850 5.000000 12.152487 3.095649 -19.051161 27.478342 -91.425110 23.310444 -1.844064 144.987747 9.971508 -3.891408 -52.634476 18.877819 21.665201 -13.065803 -7.761457 -39.431622 144.988190 -6.103423 2.394317 -71.617668 -1.347076 -12.625076 
0.570525 19.943283 -7.431512 -20.347963 -25.737024 2.686101 54.824780 28.836048 9.434623 2.071908 1.025328 1.728764 -5.841846 4.351396 -0.223647 6.543791 -5.302915 20.893541 -9.027180 -23.567070 3.195946 -51.031071 -17.474026 1.385103 -70.852669 -5.000000 2.254680 -30.569307 12.051501 24.360279 8.997020 21.180445 2.832110 60.151981 14.133305 10.938793 39.094807 5.000000 12.159949 3.051726 -19.057533 27.466646 -91.421349 23.309479 -1.798079 144.986450 9.956258 -3.872243 -52.641674 18.886728 21.678188 -13.076162 -7.793049 -39.314075 144.987686 -6.069863 2.381335 -71.663757 -1.343595 -12.540275 
0.568572 19.941328 -7.433494 -20.351501 -25.707958 2.673071 54.800285 28.827145 9.373980 2.081565 1.015563 1.718997 -5.763645 4.332084 -0.220726 6.565213 -5.338021 20.934219 -9.037136 -23.556877 3.197941 -50.992416 -17.461491 1.371278 -70.873550 -5.000000 2.250774 -30.587500 12.059556 24.356199 9.026017 21.209942 2.840618 60.123013 14.123962 10.909250 39.132763 5.000000 12.167387 2.999929 -19.051453 27.469376 -91.416748 23.317659 -1.751489 144.989288 9.971981 -3.845706 -52.623817 18.884844 21.656715 -13.074316 -7.825062 -39.224602 144.987411 -6.034929 2.358847 -71.707191 -1.306168 -12.487419 
0.568573 19.941328 -7.433494 -20.381527 -25.708744 2.633645 54.826790 28.785809 9.444102 2.100784 1.035098 1.670176 -5.724399 4.283806 -0.213423 6.567821 -5.345749 20.973997 -9.078957 -23.545053 3.210124 -50.961861 -17.468081 1.370272 -70.885300 -5.000000 2.209091 -30.591078 12.080938 24.402563 9.045453 21.239355 2.849586 60.074841 14.114900 10.860010 39.168549 5.000000 12.121516 2.966998 -19.071970 27.542669 -91.387329 23.376335 -1.706148 144.989288 9.971980 -3.845713 -52.581135 18.927685 21.663303 -13.056106 -7.800775 -39.061642 144.985733 -5.976176 2.358327 -71.694290 -1.278952 -12.402113 
